<svg width="132" height="81" viewBox="0 0 132 81" fill="none" xmlns="http://www.w3.org/2000/svg">
<g filter="url(#filter0_d_1394_59851)">
<path d="M37 18L43.896 22.0558L50.8564 26L50.792 34L50.8564 42L43.896 45.9442L37 50L30.104 45.9442L23.1436 42L23.208 34L23.1436 26L30.104 22.0558L37 18Z" fill="#82ABFB"/>
</g>
<g filter="url(#filter1_d_1394_59851)">
<path d="M29.3477 25.228L33.4609 22.3848V30.4535L36.6129 28.609L40.2456 30.7347L40.7148 31.018L33.4693 35.272V38.9511L36.0677 40.4715L31.9831 42.941L29.3477 41.3628V25.228Z" fill="url(#paint0_linear_1394_59851)"/>
<path d="M32.4836 43.2898L32.9528 43.5732L36.5854 45.6988L43.8507 41.4476V32.945L41.2154 31.3668L37.1307 33.8363L39.7292 35.3568V39.0358L32.4836 43.2898Z" fill="url(#paint1_linear_1394_59851)"/>
<path d="M42.0737 31.001L44.7091 32.5792L43.8522 32.9451L41.2168 31.3669L42.0737 31.001Z" fill="url(#paint2_linear_1394_59851)"/>
<path d="M44.7065 32.5791V41.0817L43.8496 41.4476V32.945L44.7065 32.5791Z" fill="url(#paint3_linear_1394_59851)"/>
<path d="M41.5703 30.6523L41.1011 30.3689L40.2441 30.7348L40.7133 31.0182L41.5703 30.6523Z" fill="url(#paint4_linear_1394_59851)"/>
<path d="M41.1029 30.3688L37.4702 28.2432L36.6133 28.6091L40.2459 30.7347L41.1029 30.3688Z" fill="url(#paint5_linear_1394_59851)"/>
<path d="M37.9858 33.4705L42.0705 31.001L41.2135 31.3669L37.1289 33.8364L37.9858 33.4705Z" fill="url(#paint6_linear_1394_59851)"/>
<path d="M40.5855 38.6701V34.9911L39.7285 35.357V39.036L40.5855 38.6701Z" fill="url(#paint7_linear_1394_59851)"/>
<path d="M40.5842 34.9912L37.9858 33.4707L37.1289 33.8366L39.7273 35.3571L40.5842 34.9912Z" fill="url(#paint8_linear_1394_59851)"/>
<path d="M34.3257 34.9062L41.5712 30.6522L40.7142 31.0181L33.4688 35.2722L34.3257 34.9062Z" fill="url(#paint9_linear_1394_59851)"/>
<path d="M37.4699 28.2432L34.3179 30.0876L33.4609 30.4535L36.613 28.6091L37.4699 28.2432Z" fill="url(#paint10_linear_1394_59851)"/>
<path d="M34.3179 30.0877V22.019L33.4609 22.385V30.4537L34.3179 30.0877Z" fill="url(#paint11_linear_1394_59851)"/>
<path d="M44.7082 41.0818L37.4429 45.3331L36.5859 45.699L43.8512 41.4477L44.7082 41.0818Z" fill="url(#paint12_linear_1394_59851)"/>
<path d="M34.3178 22.019L30.2046 24.8623L29.3477 25.2282L33.4609 22.385L34.3178 22.019Z" fill="url(#paint13_linear_1394_59851)"/>
<path d="M33.3413 42.9239L40.5868 38.6699L39.7299 39.0358L32.4844 43.2899L33.3413 42.9239Z" fill="url(#paint14_linear_1394_59851)"/>
<path d="M36.9241 40.1058L34.3257 38.5853L33.4688 38.9512L36.0672 40.4717L36.9241 40.1058Z" fill="url(#paint15_linear_1394_59851)"/>
<path d="M34.3257 38.5854V34.9064L33.4688 35.2723V38.9513L34.3257 38.5854Z" fill="url(#paint16_linear_1394_59851)"/>
<path d="M32.8394 42.5754L36.924 40.1058L36.067 40.4718L31.9824 42.9413L32.8394 42.5754Z" fill="url(#paint17_linear_1394_59851)"/>
<path d="M37.4427 45.3331L33.8101 43.2074L32.9531 43.5733L36.5857 45.699L37.4427 45.3331Z" fill="url(#paint18_linear_1394_59851)"/>
<path d="M30.2046 24.8623V40.9971L29.3477 41.363V25.2282L30.2046 24.8623Z" fill="url(#paint19_linear_1394_59851)"/>
<path d="M33.8105 43.2073L33.3413 42.924L32.4844 43.2899L32.9536 43.5732L33.8105 43.2073Z" fill="url(#paint20_linear_1394_59851)"/>
<path d="M30.2046 40.9972L32.84 42.5754L31.9831 42.9413L29.3477 41.3631L30.2046 40.9972Z" fill="url(#paint21_linear_1394_59851)"/>
<path d="M30.2051 24.8623L34.3183 22.019V30.0877L37.4704 28.2433L41.103 30.3689L41.5722 30.6523L34.3267 34.9063V38.5853L36.9251 40.1058L32.8405 42.5753L30.2051 40.9971V24.8623Z" fill="url(#paint22_linear_1394_59851)"/>
<path d="M33.341 42.9241L33.8103 43.2074L37.4429 45.3331L44.7081 41.0818V32.5793L42.0728 31.0011L37.9882 33.4706L40.5866 34.991V38.6701L33.341 42.9241Z" fill="url(#paint23_linear_1394_59851)"/>
</g>
<path d="M64.994 39.162C64.226 39.162 63.56 38.97 62.996 38.586C62.432 38.19 62.054 37.668 61.862 37.02L62.06 36.696V38.208C62.06 38.496 61.982 38.724 61.826 38.892C61.67 39.048 61.454 39.126 61.178 39.126C60.89 39.126 60.668 39.048 60.512 38.892C60.356 38.724 60.278 38.496 60.278 38.208V27.102C60.278 26.802 60.356 26.574 60.512 26.418C60.668 26.262 60.89 26.184 61.178 26.184C61.466 26.184 61.688 26.262 61.844 26.418C62.012 26.574 62.096 26.802 62.096 27.102V32.142H61.88C62.072 31.506 62.45 31.002 63.014 30.63C63.578 30.246 64.238 30.054 64.994 30.054C65.786 30.054 66.47 30.24 67.046 30.612C67.622 30.984 68.066 31.506 68.378 32.178C68.702 32.85 68.864 33.66 68.864 34.608C68.864 35.532 68.702 36.342 68.378 37.038C68.066 37.722 67.616 38.25 67.028 38.622C66.452 38.982 65.774 39.162 64.994 39.162ZM64.544 37.758C65.048 37.758 65.486 37.638 65.858 37.398C66.23 37.158 66.518 36.804 66.722 36.336C66.926 35.868 67.028 35.292 67.028 34.608C67.028 33.576 66.8 32.796 66.344 32.268C65.9 31.74 65.3 31.476 64.544 31.476C64.052 31.476 63.614 31.596 63.23 31.836C62.858 32.064 62.57 32.412 62.366 32.88C62.162 33.348 62.06 33.924 62.06 34.608C62.06 35.628 62.288 36.408 62.744 36.948C63.2 37.488 63.8 37.758 64.544 37.758ZM71.4528 39.108C71.1648 39.108 70.9428 39.024 70.7868 38.856C70.6308 38.676 70.5528 38.43 70.5528 38.118V31.098C70.5528 30.786 70.6308 30.546 70.7868 30.378C70.9428 30.21 71.1648 30.126 71.4528 30.126C71.7408 30.126 71.9628 30.21 72.1188 30.378C72.2868 30.546 72.3708 30.786 72.3708 31.098V38.118C72.3708 38.43 72.2928 38.676 72.1368 38.856C71.9808 39.024 71.7528 39.108 71.4528 39.108ZM71.4528 28.254C71.0928 28.254 70.8108 28.164 70.6068 27.984C70.4148 27.804 70.3188 27.552 70.3188 27.228C70.3188 26.892 70.4148 26.64 70.6068 26.472C70.8108 26.292 71.0928 26.202 71.4528 26.202C71.8128 26.202 72.0888 26.292 72.2808 26.472C72.4848 26.64 72.5868 26.892 72.5868 27.228C72.5868 27.552 72.4848 27.804 72.2808 27.984C72.0888 28.164 71.8128 28.254 71.4528 28.254ZM78.3137 39.162C77.5937 39.162 76.9877 39.036 76.4957 38.784C76.0037 38.532 75.6377 38.16 75.3977 37.668C75.1577 37.176 75.0377 36.576 75.0377 35.868V31.62H73.9577C73.7177 31.62 73.5317 31.56 73.3997 31.44C73.2677 31.308 73.2017 31.134 73.2017 30.918C73.2017 30.69 73.2677 30.516 73.3997 30.396C73.5317 30.276 73.7177 30.216 73.9577 30.216H75.0377V28.362C75.0377 28.062 75.1157 27.834 75.2717 27.678C75.4397 27.522 75.6677 27.444 75.9557 27.444C76.2437 27.444 76.4657 27.522 76.6217 27.678C76.7777 27.834 76.8557 28.062 76.8557 28.362V30.216H78.9617C79.2017 30.216 79.3877 30.276 79.5197 30.396C79.6517 30.516 79.7177 30.69 79.7177 30.918C79.7177 31.134 79.6517 31.308 79.5197 31.44C79.3877 31.56 79.2017 31.62 78.9617 31.62H76.8557V35.724C76.8557 36.36 76.9877 36.84 77.2517 37.164C77.5277 37.488 77.9717 37.65 78.5837 37.65C78.7997 37.65 78.9857 37.632 79.1417 37.596C79.3097 37.548 79.4477 37.518 79.5557 37.506C79.6877 37.506 79.7957 37.554 79.8797 37.65C79.9637 37.734 80.0057 37.902 80.0057 38.154C80.0057 38.334 79.9697 38.502 79.8977 38.658C79.8377 38.814 79.7237 38.916 79.5557 38.964C79.4117 39.012 79.2137 39.054 78.9617 39.09C78.7217 39.138 78.5057 39.162 78.3137 39.162ZM81.8639 39.126C81.5879 39.126 81.3719 39.048 81.2159 38.892C81.0599 38.736 80.9819 38.514 80.9819 38.226V27.12C80.9819 26.82 81.0539 26.592 81.1979 26.436C81.3539 26.268 81.5579 26.184 81.8099 26.184C82.0259 26.184 82.1879 26.226 82.2959 26.31C82.4159 26.382 82.5539 26.52 82.7099 26.724L90.1259 36.498H89.6759V27.066C89.6759 26.79 89.7479 26.574 89.8919 26.418C90.0479 26.262 90.2639 26.184 90.5399 26.184C90.8279 26.184 91.0439 26.262 91.1879 26.418C91.3319 26.574 91.4039 26.79 91.4039 27.066V38.244C91.4039 38.52 91.3319 38.736 91.1879 38.892C91.0559 39.048 90.8759 39.126 90.6479 39.126C90.4319 39.126 90.2519 39.084 90.1079 39C89.9759 38.916 89.8319 38.772 89.6759 38.568L82.2959 28.812H82.7099V38.226C82.7099 38.514 82.6379 38.736 82.4939 38.892C82.3499 39.048 82.1399 39.126 81.8639 39.126ZM97.6169 39.162C96.7289 39.162 95.9609 38.976 95.3129 38.604C94.6769 38.232 94.1789 37.704 93.8189 37.02C93.4589 36.336 93.2789 35.532 93.2789 34.608C93.2789 33.9 93.3809 33.27 93.5849 32.718C93.7889 32.166 94.0769 31.692 94.4489 31.296C94.8329 30.888 95.2889 30.582 95.8169 30.378C96.3569 30.162 96.9569 30.054 97.6169 30.054C98.4929 30.054 99.2489 30.24 99.8849 30.612C100.533 30.984 101.037 31.512 101.397 32.196C101.757 32.868 101.937 33.672 101.937 34.608C101.937 35.304 101.835 35.934 101.631 36.498C101.427 37.062 101.133 37.542 100.749 37.938C100.377 38.334 99.9209 38.64 99.3809 38.856C98.8529 39.06 98.2649 39.162 97.6169 39.162ZM97.6169 37.758C98.1089 37.758 98.5409 37.638 98.9129 37.398C99.2849 37.158 99.5729 36.804 99.7769 36.336C99.9929 35.868 100.101 35.292 100.101 34.608C100.101 33.576 99.8729 32.796 99.4169 32.268C98.9609 31.74 98.3609 31.476 97.6169 31.476C97.1129 31.476 96.6749 31.596 96.3029 31.836C95.9309 32.064 95.6369 32.412 95.4209 32.88C95.2169 33.348 95.1149 33.924 95.1149 34.608C95.1149 35.628 95.3429 36.408 95.7989 36.948C96.2549 37.488 96.8609 37.758 97.6169 37.758ZM104.537 39.126C104.237 39.126 104.009 39.048 103.853 38.892C103.697 38.724 103.619 38.496 103.619 38.208V31.008C103.619 30.708 103.697 30.48 103.853 30.324C104.009 30.168 104.225 30.09 104.501 30.09C104.789 30.09 105.005 30.168 105.149 30.324C105.305 30.48 105.383 30.708 105.383 31.008V32.322H105.203C105.395 31.602 105.749 31.056 106.265 30.684C106.781 30.312 107.441 30.096 108.245 30.036C108.461 30.024 108.629 30.078 108.749 30.198C108.881 30.318 108.953 30.504 108.965 30.756C108.989 31.008 108.935 31.212 108.803 31.368C108.671 31.512 108.467 31.596 108.191 31.62L107.849 31.656C107.069 31.728 106.475 31.974 106.067 32.394C105.659 32.814 105.455 33.39 105.455 34.122V38.208C105.455 38.496 105.377 38.724 105.221 38.892C105.077 39.048 104.849 39.126 104.537 39.126ZM110.909 39.126C110.621 39.126 110.399 39.048 110.243 38.892C110.087 38.724 110.009 38.496 110.009 38.208V31.008C110.009 30.708 110.087 30.48 110.243 30.324C110.399 30.168 110.615 30.09 110.891 30.09C111.179 30.09 111.395 30.168 111.539 30.324C111.695 30.48 111.773 30.708 111.773 31.008V32.484L111.575 32.088C111.815 31.452 112.187 30.954 112.691 30.594C113.195 30.234 113.801 30.054 114.509 30.054C115.241 30.054 115.835 30.228 116.291 30.576C116.747 30.924 117.059 31.458 117.227 32.178H116.975C117.203 31.518 117.593 31.002 118.145 30.63C118.697 30.246 119.339 30.054 120.071 30.054C120.743 30.054 121.295 30.186 121.727 30.45C122.159 30.702 122.483 31.092 122.699 31.62C122.915 32.136 123.023 32.79 123.023 33.582V38.208C123.023 38.496 122.939 38.724 122.771 38.892C122.615 39.048 122.393 39.126 122.105 39.126C121.817 39.126 121.595 39.048 121.439 38.892C121.283 38.724 121.205 38.496 121.205 38.208V33.672C121.205 32.928 121.073 32.382 120.809 32.034C120.557 31.686 120.137 31.512 119.549 31.512C118.889 31.512 118.367 31.74 117.983 32.196C117.599 32.652 117.407 33.282 117.407 34.086V38.208C117.407 38.496 117.329 38.724 117.173 38.892C117.017 39.048 116.795 39.126 116.507 39.126C116.219 39.126 115.991 39.048 115.823 38.892C115.667 38.724 115.589 38.496 115.589 38.208V33.672C115.589 32.928 115.463 32.382 115.211 32.034C114.959 31.686 114.539 31.512 113.951 31.512C113.291 31.512 112.769 31.74 112.385 32.196C112.013 32.652 111.827 33.282 111.827 34.086V38.208C111.827 38.82 111.521 39.126 110.909 39.126Z" fill="white"/>
<defs>
<filter id="filter0_d_1394_59851" x="0.969063" y="0.576418" width="75.2298" height="79.5189" filterUnits="userSpaceOnUse" color-interpolation-filters="sRGB">
<feFlood flood-opacity="0" result="BackgroundImageFix"/>
<feColorMatrix in="SourceAlpha" type="matrix" values="0 0 0 0 0 0 0 0 0 0 0 0 0 0 0 0 0 0 127 0" result="hardAlpha"/>
<feOffset dx="1.58396" dy="6.33585"/>
<feGaussianBlur stdDeviation="11.8797"/>
<feComposite in2="hardAlpha" operator="out"/>
<feColorMatrix type="matrix" values="0 0 0 0 0 0 0 0 0 0 0 0 0 0 0 0 0 0 0.08 0"/>
<feBlend mode="normal" in2="BackgroundImageFix" result="effect1_dropShadow_1394_59851"/>
<feBlend mode="normal" in="SourceGraphic" in2="effect1_dropShadow_1394_59851" result="shape"/>
</filter>
<filter id="filter1_d_1394_59851" x="7.17219" y="4.59546" width="62.8802" height="71.1988" filterUnits="userSpaceOnUse" color-interpolation-filters="sRGB">
<feFlood flood-opacity="0" result="BackgroundImageFix"/>
<feColorMatrix in="SourceAlpha" type="matrix" values="0 0 0 0 0 0 0 0 0 0 0 0 0 0 0 0 0 0 127 0" result="hardAlpha"/>
<feOffset dx="1.58396" dy="6.33585"/>
<feGaussianBlur stdDeviation="11.8797"/>
<feComposite in2="hardAlpha" operator="out"/>
<feColorMatrix type="matrix" values="0 0 0 0 0 0 0 0 0 0 0 0 0 0 0 0 0 0 0.08 0"/>
<feBlend mode="normal" in2="BackgroundImageFix" result="effect1_dropShadow_1394_59851"/>
<feBlend mode="normal" in="SourceGraphic" in2="effect1_dropShadow_1394_59851" result="shape"/>
</filter>
<linearGradient id="paint0_linear_1394_59851" x1="41.487" y1="43.5257" x2="29.7273" y2="25.1286" gradientUnits="userSpaceOnUse">
<stop stop-color="white"/>
<stop offset="0.497917" stop-color="white"/>
<stop offset="1" stop-color="#C6D1EE"/>
</linearGradient>
<linearGradient id="paint1_linear_1394_59851" x1="41.487" y1="43.5257" x2="29.7273" y2="25.1286" gradientUnits="userSpaceOnUse">
<stop stop-color="white"/>
<stop offset="0.497917" stop-color="white"/>
<stop offset="1" stop-color="#C6D1EE"/>
</linearGradient>
<linearGradient id="paint2_linear_1394_59851" x1="44.1399" y1="32.7639" x2="43.6839" y2="30.7039" gradientUnits="userSpaceOnUse">
<stop stop-color="white"/>
<stop offset="0.497917" stop-color="white"/>
<stop offset="1" stop-color="#C6D1EE"/>
</linearGradient>
<linearGradient id="paint3_linear_1394_59851" x1="44.5669" y1="40.6209" x2="42.305" y2="40.0713" gradientUnits="userSpaceOnUse">
<stop stop-color="white"/>
<stop offset="0.497917" stop-color="white"/>
<stop offset="1" stop-color="#C6D1EE"/>
</linearGradient>
<linearGradient id="paint4_linear_1394_59851" x1="41.3541" y1="30.9577" x2="41.2187" y2="30.2623" gradientUnits="userSpaceOnUse">
<stop stop-color="white"/>
<stop offset="0.497917" stop-color="white"/>
<stop offset="1" stop-color="#C6D1EE"/>
</linearGradient>
<linearGradient id="paint5_linear_1394_59851" x1="40.3711" y1="30.5025" x2="39.7884" y2="27.8617" gradientUnits="userSpaceOnUse">
<stop stop-color="white"/>
<stop offset="0.497917" stop-color="white"/>
<stop offset="1" stop-color="#C6D1EE"/>
</linearGradient>
<linearGradient id="paint6_linear_1394_59851" x1="41.2651" y1="33.5721" x2="40.5816" y2="30.5764" gradientUnits="userSpaceOnUse">
<stop stop-color="white"/>
<stop offset="0.497917" stop-color="white"/>
<stop offset="1" stop-color="#C6D1EE"/>
</linearGradient>
<linearGradient id="paint7_linear_1394_59851" x1="40.4458" y1="38.659" x2="38.58" y2="37.6649" gradientUnits="userSpaceOnUse">
<stop stop-color="white"/>
<stop offset="0.497917" stop-color="white"/>
<stop offset="1" stop-color="#C6D1EE"/>
</linearGradient>
<linearGradient id="paint8_linear_1394_59851" x1="40.0211" y1="35.1813" x2="39.5864" y2="33.1789" gradientUnits="userSpaceOnUse">
<stop stop-color="white"/>
<stop offset="0.497917" stop-color="white"/>
<stop offset="1" stop-color="#C6D1EE"/>
</linearGradient>
<linearGradient id="paint9_linear_1394_59851" x1="40.2506" y1="34.8415" x2="39.1433" y2="29.9575" gradientUnits="userSpaceOnUse">
<stop stop-color="white"/>
<stop offset="0.497917" stop-color="white"/>
<stop offset="1" stop-color="#C6D1EE"/>
</linearGradient>
<linearGradient id="paint10_linear_1394_59851" x1="36.8165" y1="30.2475" x2="36.3026" y2="27.9033" gradientUnits="userSpaceOnUse">
<stop stop-color="white"/>
<stop offset="0.497917" stop-color="white"/>
<stop offset="1" stop-color="#C6D1EE"/>
</linearGradient>
<linearGradient id="paint11_linear_1394_59851" x1="34.1782" y1="29.6675" x2="31.9296" y2="29.0929" gradientUnits="userSpaceOnUse">
<stop stop-color="white"/>
<stop offset="0.497917" stop-color="white"/>
<stop offset="1" stop-color="#C6D1EE"/>
</linearGradient>
<linearGradient id="paint12_linear_1394_59851" x1="43.3844" y1="45.2686" x2="42.2807" y2="40.386" gradientUnits="userSpaceOnUse">
<stop stop-color="white"/>
<stop offset="0.497917" stop-color="white"/>
<stop offset="1" stop-color="#C6D1EE"/>
</linearGradient>
<linearGradient id="paint13_linear_1394_59851" x1="33.5077" y1="24.9291" x2="32.6485" y2="21.5826" gradientUnits="userSpaceOnUse">
<stop stop-color="white"/>
<stop offset="0.497917" stop-color="white"/>
<stop offset="1" stop-color="#C6D1EE"/>
</linearGradient>
<linearGradient id="paint14_linear_1394_59851" x1="39.2663" y1="42.8592" x2="38.1589" y2="37.9752" gradientUnits="userSpaceOnUse">
<stop stop-color="white"/>
<stop offset="0.497917" stop-color="white"/>
<stop offset="1" stop-color="#C6D1EE"/>
</linearGradient>
<linearGradient id="paint15_linear_1394_59851" x1="36.3609" y1="40.2959" x2="35.9263" y2="38.2935" gradientUnits="userSpaceOnUse">
<stop stop-color="white"/>
<stop offset="0.497917" stop-color="white"/>
<stop offset="1" stop-color="#C6D1EE"/>
</linearGradient>
<linearGradient id="paint16_linear_1394_59851" x1="34.186" y1="38.5743" x2="32.3202" y2="37.5802" gradientUnits="userSpaceOnUse">
<stop stop-color="white"/>
<stop offset="0.497917" stop-color="white"/>
<stop offset="1" stop-color="#C6D1EE"/>
</linearGradient>
<linearGradient id="paint17_linear_1394_59851" x1="36.1186" y1="42.677" x2="35.4351" y2="39.6813" gradientUnits="userSpaceOnUse">
<stop stop-color="white"/>
<stop offset="0.497917" stop-color="white"/>
<stop offset="1" stop-color="#C6D1EE"/>
</linearGradient>
<linearGradient id="paint18_linear_1394_59851" x1="36.7109" y1="45.4667" x2="36.1282" y2="42.8259" gradientUnits="userSpaceOnUse">
<stop stop-color="white"/>
<stop offset="0.497917" stop-color="white"/>
<stop offset="1" stop-color="#C6D1EE"/>
</linearGradient>
<linearGradient id="paint19_linear_1394_59851" x1="30.0649" y1="39.825" x2="27.7097" y2="39.5174" gradientUnits="userSpaceOnUse">
<stop stop-color="white"/>
<stop offset="0.497917" stop-color="white"/>
<stop offset="1" stop-color="#C6D1EE"/>
</linearGradient>
<linearGradient id="paint20_linear_1394_59851" x1="33.5944" y1="43.5127" x2="33.459" y2="42.8174" gradientUnits="userSpaceOnUse">
<stop stop-color="white"/>
<stop offset="0.497917" stop-color="white"/>
<stop offset="1" stop-color="#C6D1EE"/>
</linearGradient>
<linearGradient id="paint21_linear_1394_59851" x1="32.2708" y1="42.7601" x2="31.8148" y2="40.7001" gradientUnits="userSpaceOnUse">
<stop stop-color="white"/>
<stop offset="0.497917" stop-color="white"/>
<stop offset="1" stop-color="#C6D1EE"/>
</linearGradient>
<linearGradient id="paint22_linear_1394_59851" x1="42.3444" y1="43.16" x2="30.5848" y2="24.7629" gradientUnits="userSpaceOnUse">
<stop stop-color="#D8DFF4"/>
<stop offset="0.497917" stop-color="#D7E4FF"/>
<stop offset="1" stop-color="#DCE5FF"/>
</linearGradient>
<linearGradient id="paint23_linear_1394_59851" x1="42.3444" y1="43.16" x2="30.5848" y2="24.7629" gradientUnits="userSpaceOnUse">
<stop stop-color="#D8DFF4"/>
<stop offset="0.497917" stop-color="#D7E4FF"/>
<stop offset="1" stop-color="#DCE5FF"/>
</linearGradient>
</defs>
</svg>
