<svg width="56" height="56" viewBox="0 0 56 56" fill="none" xmlns="http://www.w3.org/2000/svg">
<g clip-path="url(#clip0_1394_60166)">
<path d="M28 56C43.464 56 56 43.464 56 28C56 12.536 43.464 0 28 0C12.536 0 0 12.536 0 28C0 43.464 12.536 56 28 56Z" fill="#1C1C1C"/>
<path fill-rule="evenodd" clip-rule="evenodd" d="M27.9951 17.77L20.7451 25.02L16.5271 20.801L27.9951 9.33203L39.4681 20.805L35.2491 25.023L27.9951 17.77ZM13.5481 23.78L9.33008 27.998L13.5481 32.216L17.7671 27.997L13.5491 23.778L13.5481 23.78ZM20.7451 30.978L27.9951 38.228L35.2501 30.975L39.4701 35.191L39.4681 35.194L27.9961 46.666L16.5271 35.196L16.5211 35.191L20.7451 30.978ZM42.4451 23.782L38.2271 28.001L42.4451 32.219L46.6641 28.001L42.4451 23.782Z" fill="#F8CE2D"/>
</g>
<defs>
<clipPath id="clip0_1394_60166">
<rect width="56" height="56" fill="white"/>
</clipPath>
</defs>
</svg>
