<svg width="60" height="66" viewBox="0 0 60 66" fill="none" xmlns="http://www.w3.org/2000/svg">
<g filter="url(#filter0_d_1394_60495)">
<path d="M22.7715 20.2687L25.7283 18.2227V24.0289L27.9942 22.7016L30.6055 24.2313L30.9428 24.4352L25.7343 27.4964V30.1439L27.6022 31.238L24.666 33.0151L22.7715 31.8794V20.2687Z" fill="url(#paint0_linear_1394_60495)"/>
<path d="M25.0258 33.266L25.3631 33.4699L27.9744 34.9996L33.1971 31.9403V25.8219L31.3027 24.6862L28.3664 26.4632L30.2343 27.5574V30.2048L25.0258 33.266Z" fill="url(#paint1_linear_1394_60495)"/>
<path d="M31.9187 24.4219L33.8132 25.5576L33.1972 25.8209L31.3027 24.6852L31.9187 24.4219Z" fill="url(#paint2_linear_1394_60495)"/>
<path d="M33.8133 25.5576V31.6761L33.1973 31.9394V25.8209L33.8133 25.5576Z" fill="url(#paint3_linear_1394_60495)"/>
<path d="M31.5588 24.1713L31.2215 23.9678L30.6055 24.2306L30.9427 24.4342L31.5588 24.1713Z" fill="url(#paint4_linear_1394_60495)"/>
<path d="M31.2215 23.9671L28.6102 22.4375L27.9941 22.7008L30.6055 24.2305L31.2215 23.9671Z" fill="url(#paint5_linear_1394_60495)"/>
<path d="M28.9812 26.199L31.9175 24.4219L31.3015 24.6852L28.3652 26.4623L28.9812 26.199Z" fill="url(#paint6_linear_1394_60495)"/>
<path d="M30.8504 29.9414V27.2939L30.2344 27.5573V30.2047L30.8504 29.9414Z" fill="url(#paint7_linear_1394_60495)"/>
<path d="M30.8491 27.2943L28.9812 26.2002L28.3652 26.4635L30.2331 27.5576L30.8491 27.2943Z" fill="url(#paint8_linear_1394_60495)"/>
<path d="M26.3504 27.2321L31.5589 24.1709L30.9428 24.4342L25.7344 27.4954L26.3504 27.2321Z" fill="url(#paint9_linear_1394_60495)"/>
<path d="M28.6085 22.4375L26.3426 23.7648L25.7266 24.0281L27.9925 22.7008L28.6085 22.4375Z" fill="url(#paint10_linear_1394_60495)"/>
<path d="M26.3426 23.7653V17.959L25.7266 18.2223V24.0286L26.3426 23.7653Z" fill="url(#paint11_linear_1394_60495)"/>
<path d="M33.8114 31.6768L28.5887 34.736L27.9727 34.9993L33.1954 31.9401L33.8114 31.6768Z" fill="url(#paint12_linear_1394_60495)"/>
<path d="M26.3443 17.959L23.3875 20.005L22.7715 20.2683L25.7283 18.2223L26.3443 17.959Z" fill="url(#paint13_linear_1394_60495)"/>
<path d="M25.6414 33.0026L30.8499 29.9414L30.2339 30.2047L25.0254 33.2659L25.6414 33.0026Z" fill="url(#paint14_linear_1394_60495)"/>
<path d="M28.2183 30.974L26.3504 29.8799L25.7344 30.1432L27.6023 31.2373L28.2183 30.974Z" fill="url(#paint15_linear_1394_60495)"/>
<path d="M26.3504 29.8799V27.2324L25.7344 27.4957V30.1432L26.3504 29.8799Z" fill="url(#paint16_linear_1394_60495)"/>
<path d="M25.282 32.7517L28.2183 30.9746L27.6023 31.2379L24.666 33.015L25.282 32.7517Z" fill="url(#paint17_linear_1394_60495)"/>
<path d="M28.5906 34.7367L25.9793 33.207L25.3633 33.4704L27.9746 35L28.5906 34.7367Z" fill="url(#paint18_linear_1394_60495)"/>
<path d="M23.3875 20.0049V31.6156L22.7715 31.8789V20.2682L23.3875 20.0049Z" fill="url(#paint19_linear_1394_60495)"/>
<path d="M25.9787 33.2055L25.6414 33.002L25.0254 33.2648L25.3627 33.4684L25.9787 33.2055Z" fill="url(#paint20_linear_1394_60495)"/>
<path d="M23.3875 31.6152L25.282 32.7509L24.666 33.0142L22.7715 31.8786L23.3875 31.6152Z" fill="url(#paint21_linear_1394_60495)"/>
<path d="M23.3867 20.005L26.3435 17.959V23.7653L28.6094 22.438L31.2208 23.9676L31.558 24.1715L26.3496 27.2327V29.8802L28.2175 30.9743L25.2812 32.7514L23.3867 31.6157V20.005Z" fill="url(#paint22_linear_1394_60495)"/>
<path d="M25.641 33.0023L25.9783 33.2063L28.5896 34.7359L33.8123 31.6767V25.5582L31.9179 24.4225L28.9816 26.1996L30.8495 27.2937V29.9411L25.641 33.0023Z" fill="url(#paint23_linear_1394_60495)"/>
</g>
<defs>
<filter id="filter0_d_1394_60495" x="0.596017" y="0.535403" width="58.5599" height="64.5599" filterUnits="userSpaceOnUse" color-interpolation-filters="sRGB">
<feFlood flood-opacity="0" result="BackgroundImageFix"/>
<feColorMatrix in="SourceAlpha" type="matrix" values="0 0 0 0 0 0 0 0 0 0 0 0 0 0 0 0 0 0 127 0" result="hardAlpha"/>
<feOffset dx="1.58396" dy="6.33585"/>
<feGaussianBlur stdDeviation="11.8797"/>
<feComposite in2="hardAlpha" operator="out"/>
<feColorMatrix type="matrix" values="0 0 0 0 0 0 0 0 0 0 0 0 0 0 0 0 0 0 0.08 0"/>
<feBlend mode="normal" in2="BackgroundImageFix" result="effect1_dropShadow_1394_60495"/>
<feBlend mode="normal" in="SourceGraphic" in2="effect1_dropShadow_1394_60495" result="shape"/>
</filter>
<linearGradient id="paint0_linear_1394_60495" x1="31.4979" y1="33.4358" x2="23.0319" y2="20.2051" gradientUnits="userSpaceOnUse">
<stop stop-color="white"/>
<stop offset="0.497917" stop-color="white"/>
<stop offset="1" stop-color="#C6D1EE"/>
</linearGradient>
<linearGradient id="paint1_linear_1394_60495" x1="31.4979" y1="33.4358" x2="23.0319" y2="20.2051" gradientUnits="userSpaceOnUse">
<stop stop-color="white"/>
<stop offset="0.497917" stop-color="white"/>
<stop offset="1" stop-color="#C6D1EE"/>
</linearGradient>
<linearGradient id="paint2_linear_1394_60495" x1="33.404" y1="25.6905" x2="33.0756" y2="24.2082" gradientUnits="userSpaceOnUse">
<stop stop-color="white"/>
<stop offset="0.497917" stop-color="white"/>
<stop offset="1" stop-color="#C6D1EE"/>
</linearGradient>
<linearGradient id="paint3_linear_1394_60495" x1="33.7129" y1="31.3446" x2="32.0868" y2="30.9498" gradientUnits="userSpaceOnUse">
<stop stop-color="white"/>
<stop offset="0.497917" stop-color="white"/>
<stop offset="1" stop-color="#C6D1EE"/>
</linearGradient>
<linearGradient id="paint4_linear_1394_60495" x1="31.4034" y1="24.3907" x2="31.3062" y2="23.8912" gradientUnits="userSpaceOnUse">
<stop stop-color="white"/>
<stop offset="0.497917" stop-color="white"/>
<stop offset="1" stop-color="#C6D1EE"/>
</linearGradient>
<linearGradient id="paint5_linear_1394_60495" x1="30.6955" y1="24.0633" x2="30.2757" y2="22.1632" gradientUnits="userSpaceOnUse">
<stop stop-color="white"/>
<stop offset="0.497917" stop-color="white"/>
<stop offset="1" stop-color="#C6D1EE"/>
</linearGradient>
<linearGradient id="paint6_linear_1394_60495" x1="31.3385" y1="26.2721" x2="30.8462" y2="24.1166" gradientUnits="userSpaceOnUse">
<stop stop-color="white"/>
<stop offset="0.497917" stop-color="white"/>
<stop offset="1" stop-color="#C6D1EE"/>
</linearGradient>
<linearGradient id="paint7_linear_1394_60495" x1="30.75" y1="29.9334" x2="29.4081" y2="29.2192" gradientUnits="userSpaceOnUse">
<stop stop-color="white"/>
<stop offset="0.497917" stop-color="white"/>
<stop offset="1" stop-color="#C6D1EE"/>
</linearGradient>
<linearGradient id="paint8_linear_1394_60495" x1="30.4443" y1="27.4311" x2="30.1312" y2="25.9903" gradientUnits="userSpaceOnUse">
<stop stop-color="white"/>
<stop offset="0.497917" stop-color="white"/>
<stop offset="1" stop-color="#C6D1EE"/>
</linearGradient>
<linearGradient id="paint9_linear_1394_60495" x1="30.6096" y1="27.1855" x2="29.812" y2="23.6713" gradientUnits="userSpaceOnUse">
<stop stop-color="white"/>
<stop offset="0.497917" stop-color="white"/>
<stop offset="1" stop-color="#C6D1EE"/>
</linearGradient>
<linearGradient id="paint10_linear_1394_60495" x1="28.1388" y1="23.8798" x2="27.7686" y2="22.1931" gradientUnits="userSpaceOnUse">
<stop stop-color="white"/>
<stop offset="0.497917" stop-color="white"/>
<stop offset="1" stop-color="#C6D1EE"/>
</linearGradient>
<linearGradient id="paint11_linear_1394_60495" x1="26.2422" y1="23.4628" x2="24.6255" y2="23.0502" gradientUnits="userSpaceOnUse">
<stop stop-color="white"/>
<stop offset="0.497917" stop-color="white"/>
<stop offset="1" stop-color="#C6D1EE"/>
</linearGradient>
<linearGradient id="paint12_linear_1394_60495" x1="32.8598" y1="34.6896" x2="32.0648" y2="31.1764" gradientUnits="userSpaceOnUse">
<stop stop-color="white"/>
<stop offset="0.497917" stop-color="white"/>
<stop offset="1" stop-color="#C6D1EE"/>
</linearGradient>
<linearGradient id="paint13_linear_1394_60495" x1="25.762" y1="20.0531" x2="25.1431" y2="17.6453" gradientUnits="userSpaceOnUse">
<stop stop-color="white"/>
<stop offset="0.497917" stop-color="white"/>
<stop offset="1" stop-color="#C6D1EE"/>
</linearGradient>
<linearGradient id="paint14_linear_1394_60495" x1="29.9006" y1="32.956" x2="29.103" y2="29.4418" gradientUnits="userSpaceOnUse">
<stop stop-color="white"/>
<stop offset="0.497917" stop-color="white"/>
<stop offset="1" stop-color="#C6D1EE"/>
</linearGradient>
<linearGradient id="paint15_linear_1394_60495" x1="27.8134" y1="31.1108" x2="27.5003" y2="29.67" gradientUnits="userSpaceOnUse">
<stop stop-color="white"/>
<stop offset="0.497917" stop-color="white"/>
<stop offset="1" stop-color="#C6D1EE"/>
</linearGradient>
<linearGradient id="paint16_linear_1394_60495" x1="26.25" y1="29.8719" x2="24.9081" y2="29.1577" gradientUnits="userSpaceOnUse">
<stop stop-color="white"/>
<stop offset="0.497917" stop-color="white"/>
<stop offset="1" stop-color="#C6D1EE"/>
</linearGradient>
<linearGradient id="paint17_linear_1394_60495" x1="27.6393" y1="32.8248" x2="27.147" y2="30.6693" gradientUnits="userSpaceOnUse">
<stop stop-color="white"/>
<stop offset="0.497917" stop-color="white"/>
<stop offset="1" stop-color="#C6D1EE"/>
</linearGradient>
<linearGradient id="paint18_linear_1394_60495" x1="28.0646" y1="34.8329" x2="27.6448" y2="32.9327" gradientUnits="userSpaceOnUse">
<stop stop-color="white"/>
<stop offset="0.497917" stop-color="white"/>
<stop offset="1" stop-color="#C6D1EE"/>
</linearGradient>
<linearGradient id="paint19_linear_1394_60495" x1="23.2871" y1="30.7721" x2="21.594" y2="30.5512" gradientUnits="userSpaceOnUse">
<stop stop-color="white"/>
<stop offset="0.497917" stop-color="white"/>
<stop offset="1" stop-color="#C6D1EE"/>
</linearGradient>
<linearGradient id="paint20_linear_1394_60495" x1="25.8233" y1="33.4249" x2="25.7261" y2="32.9254" gradientUnits="userSpaceOnUse">
<stop stop-color="white"/>
<stop offset="0.497917" stop-color="white"/>
<stop offset="1" stop-color="#C6D1EE"/>
</linearGradient>
<linearGradient id="paint21_linear_1394_60495" x1="24.8728" y1="32.8838" x2="24.5444" y2="31.4016" gradientUnits="userSpaceOnUse">
<stop stop-color="white"/>
<stop offset="0.497917" stop-color="white"/>
<stop offset="1" stop-color="#C6D1EE"/>
</linearGradient>
<linearGradient id="paint22_linear_1394_60495" x1="32.1131" y1="33.1721" x2="23.6472" y2="19.9414" gradientUnits="userSpaceOnUse">
<stop stop-color="#D8DFF4"/>
<stop offset="0.497917" stop-color="#D7E4FF"/>
<stop offset="1" stop-color="#DCE5FF"/>
</linearGradient>
<linearGradient id="paint23_linear_1394_60495" x1="32.1131" y1="33.1721" x2="23.6472" y2="19.9414" gradientUnits="userSpaceOnUse">
<stop stop-color="#D8DFF4"/>
<stop offset="0.497917" stop-color="#D7E4FF"/>
<stop offset="1" stop-color="#DCE5FF"/>
</linearGradient>
</defs>
</svg>
