<svg width="56" height="56" viewBox="0 0 56 56" fill="none" xmlns="http://www.w3.org/2000/svg">
<g clip-path="url(#clip0_1394_60127)">
<path d="M55.1613 34.773C51.4213 49.773 36.2293 58.903 21.2273 55.162C6.23231 51.422 -2.89669 36.228 0.844313 21.23C4.58231 6.22798 19.7743 -2.90202 34.7723 0.837978C49.7723 4.57798 58.9023 19.772 55.1613 34.773Z" fill="#F7931A"/>
<path fill-rule="evenodd" clip-rule="evenodd" d="M40.3489 24.0099C40.9059 20.2849 38.0689 18.2819 34.1889 16.9449L35.4489 11.8979L32.3759 11.1319L31.1509 16.0469C30.3429 15.8449 29.5129 15.6559 28.6889 15.4669L29.9229 10.5199L26.8529 9.75488L25.5929 14.8009C24.9249 14.6489 24.2679 14.4979 23.6309 14.3399L23.6349 14.3239L19.3979 13.2659L18.5799 16.5469C18.5799 16.5469 20.8599 17.0699 20.8119 17.1019C22.0559 17.4119 22.2819 18.2359 22.2439 18.8889L20.8099 24.6389C20.8959 24.6609 21.0069 24.6919 21.1299 24.7419L21.0399 24.7189C20.9617 24.6992 20.8833 24.6798 20.8049 24.6609L18.7949 32.7169C18.6439 33.0949 18.2579 33.6619 17.3879 33.4469C17.4179 33.4909 15.1549 32.8889 15.1549 32.8889L13.6289 36.4059L17.6269 37.4029C18.0649 37.5129 18.4969 37.6259 18.9269 37.7369C19.2259 37.8149 19.5229 37.8929 19.8179 37.9679L18.5469 43.0739L21.6159 43.8389L22.8749 38.7889C23.7129 39.0159 24.5269 39.2259 25.3229 39.4239L24.0679 44.4509L27.1409 45.2169L28.4119 40.1209C33.6519 41.1119 37.5919 40.7119 39.2499 35.9739C40.5859 32.1579 39.1829 29.9569 36.4269 28.5219C38.4339 28.0589 39.9469 26.7389 40.3499 24.0119L40.3489 24.0099ZM33.3289 33.8549C32.4569 37.3549 26.9779 35.9079 24.4709 35.2449C24.2459 35.1859 24.0439 35.1329 23.8719 35.0899L25.5589 28.3269C25.7689 28.3789 26.0249 28.4369 26.3149 28.5009C28.9079 29.0829 34.2209 30.2759 33.3289 33.8549ZM26.8309 25.3629C28.9209 25.9209 33.4809 27.1379 34.2749 23.9559C35.0859 20.7019 30.6549 19.7209 28.4909 19.2419C28.2469 19.1879 28.0329 19.1409 27.8569 19.0969L26.3269 25.2309C26.4719 25.2669 26.6409 25.3119 26.8309 25.3629Z" fill="white"/>
</g>
<defs>
<clipPath id="clip0_1394_60127">
<rect width="56" height="56" fill="white"/>
</clipPath>
</defs>
</svg>
