<svg width="56" height="56" viewBox="0 0 56 56" fill="none" xmlns="http://www.w3.org/2000/svg">
<g clip-path="url(#clip0_1394_60113)">
<path d="M28 56C43.464 56 56 43.464 56 28C56 12.536 43.464 0 28 0C12.536 0 0 12.536 0 28C0 43.464 12.536 56 28 56Z" fill="#F7F8FA"/>
<path d="M27.9173 11.2002L27.6953 11.9572V33.9092L27.9183 34.1322L38.1083 28.1082L27.9173 11.2002Z" fill="#EFF0F3"/>
<path d="M27.9205 11.2002L17.7305 28.1082L27.9205 34.1322V11.2002Z" fill="#CFCED2"/>
<path d="M27.919 36.06L27.793 36.213V44.033L27.919 44.4L38.115 30.04L27.919 36.06Z" fill="#A1A1A8"/>
<path d="M27.9205 44.401V36.061L17.7305 30.041L27.9205 44.401Z" fill="#CFCED2"/>
<path d="M27.9219 34.1306L38.1119 28.1076L27.9219 23.4756V34.1306Z" fill="#E0E1E4"/>
<path d="M17.7305 28.1076L27.9205 34.1306V23.4756L17.7305 28.1076Z" fill="#A1A1A8"/>
</g>
<defs>
<clipPath id="clip0_1394_60113">
<rect width="56" height="56" fill="white"/>
</clipPath>
</defs>
</svg>
